<?xml version="1.0" standalone="no"?>
<!DOCTYPE svg PUBLIC "-//W3C//DTD SVG 20010904//EN"
 "http://www.w3.org/TR/2001/REC-SVG-20010904/DTD/svg10.dtd">
<svg version="1.0" xmlns="http://www.w3.org/2000/svg"
 width="512.000000pt" height="512.000000pt" viewBox="0 0 512.000000 512.000000"
 preserveAspectRatio="xMidYMid meet">

<g transform="translate(0.000000,512.000000) scale(0.100000,-0.100000)"
fill="#000000" stroke="none">
<path d="M170 2481 c0 -274 81 -631 202 -894 38 -81 131 -257 167 -312 11 -18
-10 -72 -180 -465 -209 -484 -214 -502 -172 -571 12 -19 36 -43 55 -53 67 -40
88 -34 568 173 430 185 446 191 470 176 309 -192 646 -311 1005 -356 127 -16
420 -16 550 0 1069 132 1911 938 2090 2001 9 52 19 166 22 253 l6 157 -157 0
-156 0 0 -100 c0 -315 -112 -698 -292 -999 -328 -546 -889 -913 -1521 -996
-136 -17 -384 -20 -507 -5 -315 39 -614 147 -886 319 -155 98 -136 100 -487
-50 -155 -67 -292 -125 -304 -130 -27 -10 -41 -48 116 320 148 346 146 335 62
465 -126 196 -216 395 -271 598 -46 173 -61 267 -67 431 l-6 147 -153 0 -154
0 0 -109z"/>
<path d="M1330 2583 c0 -15 82 -159 138 -242 204 -309 587 -689 892 -886 296
-191 542 -277 800 -277 189 0 321 35 435 117 99 71 346 331 422 446 28 43 33
111 10 155 -9 16 -141 153 -294 306 -304 302 -314 309 -398 287 -32 -9 -69
-40 -182 -151 l-141 -140 -39 12 c-117 38 -253 131 -403 276 l-108 104 -197
-2 -197 -3 63 -80 c139 -178 387 -402 550 -497 180 -106 354 -145 456 -103 20
9 82 60 137 115 l102 100 152 -153 152 -152 -87 -96 c-187 -205 -226 -224
-448 -223 -130 0 -147 3 -240 33 -263 87 -529 267 -816 553 -146 145 -266 287
-352 415 l-62 92 -172 1 c-95 0 -173 -3 -173 -7z"/>
</g>
</svg>
